<mxfile host="app.diagrams.net" modified="2021-04-29T06:04:07.931Z" agent="5.0 (Macintosh; Intel Mac OS X 10_15_6) AppleWebKit/605.1.15 (KHTML, like Gecko) Version/14.0.3 Safari/605.1.15" etag="7UzMW9w7UBANPn-oLcZa" version="14.6.6" type="github">
  <diagram id="hPtmtx6IpT1gjBAr7_w4" name="Page-1">
    <mxGraphModel dx="1518" dy="970" grid="1" gridSize="10" guides="1" tooltips="1" connect="1" arrows="1" fold="1" page="1" pageScale="1" pageWidth="827" pageHeight="1169" math="0" shadow="0">
      <root>
        <mxCell id="0" />
        <mxCell id="1" parent="0" />
        <mxCell id="3cUhAm3IvbHf3z0y6Tj2-21" value="Relying Party&lt;br style=&quot;font-size: 12px;&quot;&gt;(Client)" style="html=1;strokeColor=#1C1C1C;fillColor=#ffffff;fontFamily=Tahoma;fontSize=12;fontColor=#525252;align=center;strokeWidth=2;" parent="1" vertex="1">
          <mxGeometry x="160" y="400" width="90" height="320" as="geometry" />
        </mxCell>
        <mxCell id="3cUhAm3IvbHf3z0y6Tj2-54" value="&lt;div style=&quot;text-align: center&quot;&gt;OpenID Provider / IDP&lt;/div&gt;" style="html=1;strokeColor=#1C1C1C;fillColor=#E6E6E6;fontFamily=Tahoma;fontSize=12;fontColor=#525252;align=left;verticalAlign=top;spacingLeft=4;strokeWidth=2;" parent="1" vertex="1">
          <mxGeometry x="480" y="400" width="160" height="320" as="geometry" />
        </mxCell>
        <mxCell id="3cUhAm3IvbHf3z0y6Tj2-53" value="Authorization&lt;br style=&quot;font-size: 12px;&quot;&gt;Endpoint" style="html=1;strokeColor=#1C1C1C;fillColor=#ffffff;fontFamily=Tahoma;fontSize=12;fontColor=#525252;align=center;strokeWidth=2;verticalAlign=middle;" parent="1" vertex="1">
          <mxGeometry x="498" y="450" width="132" height="110" as="geometry" />
        </mxCell>
        <mxCell id="3cUhAm3IvbHf3z0y6Tj2-55" value="Token&lt;br&gt;Endpoint" style="html=1;strokeColor=#1C1C1C;fillColor=#ffffff;fontFamily=Tahoma;fontSize=14;fontColor=#525252;align=center;strokeWidth=2;verticalAlign=middle;" parent="1" vertex="1">
          <mxGeometry x="498" y="580" width="132" height="60" as="geometry" />
        </mxCell>
        <mxCell id="3cUhAm3IvbHf3z0y6Tj2-56" value="" style="group" parent="1" vertex="1" connectable="0">
          <mxGeometry x="321" y="440" width="40" height="29" as="geometry" />
        </mxCell>
        <mxCell id="3cUhAm3IvbHf3z0y6Tj2-58" value="" style="ellipse;whiteSpace=wrap;html=1;strokeColor=#1C1C1C;fillColor=none;fontFamily=Tahoma;fontSize=14;fontColor=#525252;align=center;strokeWidth=2;" parent="3cUhAm3IvbHf3z0y6Tj2-56" vertex="1">
          <mxGeometry x="19" y="19" width="10" height="10" as="geometry" />
        </mxCell>
        <mxCell id="3cUhAm3IvbHf3z0y6Tj2-60" value="" style="endArrow=none;html=1;entryX=0;entryY=0.5;entryDx=0;entryDy=0;" parent="1" target="3cUhAm3IvbHf3z0y6Tj2-58" edge="1">
          <mxGeometry width="50" height="50" relative="1" as="geometry">
            <mxPoint x="250" y="464" as="sourcePoint" />
            <mxPoint x="411" y="530" as="targetPoint" />
          </mxGeometry>
        </mxCell>
        <mxCell id="3cUhAm3IvbHf3z0y6Tj2-61" value="" style="endArrow=none;html=1;exitX=1;exitY=0.5;exitDx=0;exitDy=0;entryX=-0.004;entryY=0.125;entryDx=0;entryDy=0;entryPerimeter=0;" parent="1" source="3cUhAm3IvbHf3z0y6Tj2-58" target="3cUhAm3IvbHf3z0y6Tj2-53" edge="1">
          <mxGeometry width="50" height="50" relative="1" as="geometry">
            <mxPoint x="361" y="580" as="sourcePoint" />
            <mxPoint x="418" y="464.5" as="targetPoint" />
          </mxGeometry>
        </mxCell>
        <mxCell id="3cUhAm3IvbHf3z0y6Tj2-62" value="Authorization Request&amp;nbsp;+ t(code_verifier), t_m" style="text;html=1;strokeColor=none;fillColor=none;align=center;verticalAlign=middle;whiteSpace=wrap;overflow=hidden;fontFamily=Helvetica;fontSize=10;fontColor=#000000;fontStyle=1" parent="1" vertex="1">
          <mxGeometry x="250" y="433" width="218" height="30" as="geometry" />
        </mxCell>
        <mxCell id="A-txcWsjSwX4J8gZqHXm-6" value="" style="endArrow=none;html=1;exitX=1;exitY=0.5;exitDx=0;exitDy=0;entryX=0;entryY=0.5;entryDx=0;entryDy=0;" parent="1" source="A-txcWsjSwX4J8gZqHXm-3" edge="1">
          <mxGeometry width="50" height="50" relative="1" as="geometry">
            <mxPoint x="441" y="671" as="sourcePoint" />
            <mxPoint x="498" y="555.5" as="targetPoint" />
          </mxGeometry>
        </mxCell>
        <mxCell id="A-txcWsjSwX4J8gZqHXm-3" value="" style="ellipse;whiteSpace=wrap;html=1;strokeColor=#1C1C1C;fillColor=none;fontFamily=Tahoma;fontSize=14;fontColor=#525252;align=center;strokeWidth=2;" parent="1" vertex="1">
          <mxGeometry x="340" y="550" width="10" height="10" as="geometry" />
        </mxCell>
        <mxCell id="A-txcWsjSwX4J8gZqHXm-4" style="edgeStyle=none;rounded=0;html=1;startArrow=none;startFill=0;endArrow=classic;endFill=1;jettySize=auto;orthogonalLoop=1;strokeColor=#000000;fontFamily=Helvetica;fontSize=10;fontColor=#000000;targetPerimeterSpacing=0;endSize=8;sourcePerimeterSpacing=0;startSize=0;" parent="1" edge="1">
          <mxGeometry relative="1" as="geometry">
            <mxPoint x="362" y="544.71" as="targetPoint" />
            <mxPoint x="370" y="544.71" as="sourcePoint" />
          </mxGeometry>
        </mxCell>
        <mxCell id="A-txcWsjSwX4J8gZqHXm-5" value="" style="endArrow=none;html=1;entryX=0;entryY=0.5;entryDx=0;entryDy=0;exitX=1.008;exitY=0.486;exitDx=0;exitDy=0;exitPerimeter=0;" parent="1" source="3cUhAm3IvbHf3z0y6Tj2-21" target="A-txcWsjSwX4J8gZqHXm-3" edge="1">
          <mxGeometry width="50" height="50" relative="1" as="geometry">
            <mxPoint x="251" y="555" as="sourcePoint" />
            <mxPoint x="491" y="621" as="targetPoint" />
          </mxGeometry>
        </mxCell>
        <mxCell id="A-txcWsjSwX4J8gZqHXm-7" value="Authorization Code" style="text;html=1;strokeColor=none;fillColor=none;align=center;verticalAlign=middle;whiteSpace=wrap;overflow=hidden;fontFamily=Helvetica;fontSize=10;fontColor=#000000;fontStyle=1" parent="1" vertex="1">
          <mxGeometry x="367" y="535" width="110" height="20" as="geometry" />
        </mxCell>
        <mxCell id="3cUhAm3IvbHf3z0y6Tj2-59" style="edgeStyle=none;rounded=0;html=1;startArrow=none;startFill=0;endArrow=classic;endFill=1;jettySize=auto;orthogonalLoop=1;strokeColor=#000000;fontFamily=Helvetica;fontSize=10;fontColor=#000000;targetPerimeterSpacing=0;endSize=8;sourcePerimeterSpacing=0;startSize=0;" parent="1" edge="1">
          <mxGeometry relative="1" as="geometry">
            <mxPoint x="477" y="447.9" as="targetPoint" />
            <mxPoint x="469" y="447.9" as="sourcePoint" />
          </mxGeometry>
        </mxCell>
        <mxCell id="A-txcWsjSwX4J8gZqHXm-10" value="User Info &lt;br&gt;Endpoint" style="html=1;strokeColor=#1C1C1C;fillColor=#ffffff;fontFamily=Tahoma;fontSize=14;fontColor=#525252;align=center;strokeWidth=2;verticalAlign=middle;" parent="1" vertex="1">
          <mxGeometry x="498" y="650" width="132" height="60" as="geometry" />
        </mxCell>
        <mxCell id="A-txcWsjSwX4J8gZqHXm-11" value="" style="group;fillColor=#ffffff;strokeColor=#000000;strokeWidth=2;" parent="1" vertex="1" connectable="0">
          <mxGeometry x="295" y="479" width="40" height="62" as="geometry" />
        </mxCell>
        <mxCell id="A-txcWsjSwX4J8gZqHXm-12" value="" style="shape=umlActor;verticalLabelPosition=bottom;labelBackgroundColor=#ffffff;verticalAlign=top;strokeColor=#1C1C1C;fillColor=none;fontFamily=Tahoma;fontSize=14;fontColor=#525252;align=center;html=1;" parent="A-txcWsjSwX4J8gZqHXm-11" vertex="1">
          <mxGeometry x="7.09999999999998" y="6.285714285714278" width="25.8" height="51.42857142857142" as="geometry" />
        </mxCell>
        <mxCell id="A-txcWsjSwX4J8gZqHXm-13" value="" style="whiteSpace=wrap;html=1;strokeColor=#1C1C1C;fillColor=none;fontFamily=Tahoma;fontSize=14;fontColor=#525252;align=center;" parent="A-txcWsjSwX4J8gZqHXm-11" vertex="1">
          <mxGeometry width="40" height="62" as="geometry" />
        </mxCell>
        <mxCell id="A-txcWsjSwX4J8gZqHXm-14" value="&lt;font face=&quot;Verdana&quot; style=&quot;font-size: 12px&quot;&gt;Authenticator&lt;/font&gt;" style="html=1;strokeColor=#1C1C1C;fillColor=#ffffff;fontFamily=Tahoma;fontSize=14;fontColor=#525252;align=center;strokeWidth=2;verticalAlign=middle;" parent="1" vertex="1">
          <mxGeometry x="350" y="490" width="90" height="40" as="geometry" />
        </mxCell>
        <mxCell id="A-txcWsjSwX4J8gZqHXm-15" value="" style="group" parent="1" vertex="1" connectable="0">
          <mxGeometry x="440" y="486" width="40" height="29" as="geometry" />
        </mxCell>
        <mxCell id="A-txcWsjSwX4J8gZqHXm-17" value="" style="ellipse;whiteSpace=wrap;html=1;strokeColor=#1C1C1C;fillColor=none;fontFamily=Tahoma;fontSize=14;fontColor=#525252;align=center;strokeWidth=2;" parent="A-txcWsjSwX4J8gZqHXm-15" vertex="1">
          <mxGeometry x="19" y="19" width="10" height="10" as="geometry" />
        </mxCell>
        <mxCell id="A-txcWsjSwX4J8gZqHXm-21" value="" style="endArrow=none;html=1;fontSize=12;exitX=1;exitY=0.5;exitDx=0;exitDy=0;" parent="1" source="A-txcWsjSwX4J8gZqHXm-17" edge="1">
          <mxGeometry width="50" height="50" relative="1" as="geometry">
            <mxPoint x="410" y="570" as="sourcePoint" />
            <mxPoint x="480" y="510" as="targetPoint" />
          </mxGeometry>
        </mxCell>
        <mxCell id="A-txcWsjSwX4J8gZqHXm-22" value="" style="endArrow=none;html=1;fontSize=12;exitX=1;exitY=0.5;exitDx=0;exitDy=0;entryX=0;entryY=0.5;entryDx=0;entryDy=0;" parent="1" source="A-txcWsjSwX4J8gZqHXm-14" target="A-txcWsjSwX4J8gZqHXm-17" edge="1">
          <mxGeometry width="50" height="50" relative="1" as="geometry">
            <mxPoint x="479" y="520" as="sourcePoint" />
            <mxPoint x="490.31999999999994" y="520.36" as="targetPoint" />
          </mxGeometry>
        </mxCell>
        <mxCell id="A-txcWsjSwX4J8gZqHXm-25" value="" style="group" parent="1" vertex="1" connectable="0">
          <mxGeometry x="321.53" y="573" width="40" height="29" as="geometry" />
        </mxCell>
        <mxCell id="A-txcWsjSwX4J8gZqHXm-26" value="" style="ellipse;whiteSpace=wrap;html=1;strokeColor=#1C1C1C;fillColor=none;fontFamily=Tahoma;fontSize=14;fontColor=#525252;align=center;strokeWidth=2;" parent="A-txcWsjSwX4J8gZqHXm-25" vertex="1">
          <mxGeometry x="19" y="19" width="10" height="10" as="geometry" />
        </mxCell>
        <mxCell id="A-txcWsjSwX4J8gZqHXm-27" value="" style="endArrow=none;html=1;entryX=0;entryY=0.5;entryDx=0;entryDy=0;" parent="1" target="A-txcWsjSwX4J8gZqHXm-26" edge="1">
          <mxGeometry width="50" height="50" relative="1" as="geometry">
            <mxPoint x="250.53" y="597" as="sourcePoint" />
            <mxPoint x="411.53" y="663" as="targetPoint" />
          </mxGeometry>
        </mxCell>
        <mxCell id="A-txcWsjSwX4J8gZqHXm-28" value="" style="endArrow=none;html=1;exitX=1;exitY=0.5;exitDx=0;exitDy=0;entryX=-0.004;entryY=0.125;entryDx=0;entryDy=0;entryPerimeter=0;" parent="1" source="A-txcWsjSwX4J8gZqHXm-26" edge="1">
          <mxGeometry width="50" height="50" relative="1" as="geometry">
            <mxPoint x="361.53" y="713" as="sourcePoint" />
            <mxPoint x="498.00199999999995" y="596.75" as="targetPoint" />
          </mxGeometry>
        </mxCell>
        <mxCell id="A-txcWsjSwX4J8gZqHXm-29" value="&amp;nbsp;Access Token Request,&amp;nbsp;+ code_verifier" style="text;html=1;strokeColor=none;fillColor=none;align=center;verticalAlign=middle;whiteSpace=wrap;overflow=hidden;fontFamily=Helvetica;fontSize=10;fontColor=#000000;fontStyle=1" parent="1" vertex="1">
          <mxGeometry x="231.47" y="568" width="227.53" height="29.66" as="geometry" />
        </mxCell>
        <mxCell id="A-txcWsjSwX4J8gZqHXm-30" style="edgeStyle=none;rounded=0;html=1;startArrow=none;startFill=0;endArrow=classic;endFill=1;jettySize=auto;orthogonalLoop=1;strokeColor=#000000;fontFamily=Helvetica;fontSize=10;fontColor=#000000;targetPerimeterSpacing=0;endSize=8;sourcePerimeterSpacing=0;startSize=0;" parent="1" edge="1">
          <mxGeometry relative="1" as="geometry">
            <mxPoint x="450" y="583.76" as="targetPoint" />
            <mxPoint x="442" y="583.76" as="sourcePoint" />
          </mxGeometry>
        </mxCell>
        <mxCell id="A-txcWsjSwX4J8gZqHXm-36" value="" style="endArrow=none;html=1;exitX=1;exitY=0.5;exitDx=0;exitDy=0;entryX=0;entryY=0.5;entryDx=0;entryDy=0;" parent="1" source="A-txcWsjSwX4J8gZqHXm-37" edge="1">
          <mxGeometry width="50" height="50" relative="1" as="geometry">
            <mxPoint x="441" y="738" as="sourcePoint" />
            <mxPoint x="498" y="622.5" as="targetPoint" />
          </mxGeometry>
        </mxCell>
        <mxCell id="A-txcWsjSwX4J8gZqHXm-37" value="" style="ellipse;whiteSpace=wrap;html=1;strokeColor=#1C1C1C;fillColor=none;fontFamily=Tahoma;fontSize=14;fontColor=#525252;align=center;strokeWidth=2;" parent="1" vertex="1">
          <mxGeometry x="340" y="617" width="10" height="10" as="geometry" />
        </mxCell>
        <mxCell id="A-txcWsjSwX4J8gZqHXm-38" style="edgeStyle=none;rounded=0;html=1;startArrow=none;startFill=0;endArrow=classic;endFill=1;jettySize=auto;orthogonalLoop=1;strokeColor=#000000;fontFamily=Helvetica;fontSize=10;fontColor=#000000;targetPerimeterSpacing=0;endSize=8;startSize=0;" parent="1" edge="1">
          <mxGeometry relative="1" as="geometry">
            <mxPoint x="298" y="609.8500000000001" as="targetPoint" />
            <mxPoint x="306" y="610.14" as="sourcePoint" />
          </mxGeometry>
        </mxCell>
        <mxCell id="A-txcWsjSwX4J8gZqHXm-39" value="" style="endArrow=none;html=1;entryX=0;entryY=0.5;entryDx=0;entryDy=0;exitX=1;exitY=0.5;exitDx=0;exitDy=0;" parent="1" target="A-txcWsjSwX4J8gZqHXm-37" edge="1">
          <mxGeometry width="50" height="50" relative="1" as="geometry">
            <mxPoint x="250" y="621.9999999999999" as="sourcePoint" />
            <mxPoint x="491" y="688" as="targetPoint" />
          </mxGeometry>
        </mxCell>
        <mxCell id="A-txcWsjSwX4J8gZqHXm-40" value="access_token, id_token (optional)" style="text;html=1;strokeColor=none;fillColor=none;align=center;verticalAlign=middle;whiteSpace=wrap;overflow=hidden;fontFamily=Helvetica;fontSize=10;fontColor=#000000;fontStyle=1" parent="1" vertex="1">
          <mxGeometry x="307" y="598.66" width="170" height="20" as="geometry" />
        </mxCell>
        <mxCell id="A-txcWsjSwX4J8gZqHXm-43" value="" style="group" parent="1" vertex="1" connectable="0">
          <mxGeometry x="321.53" y="643" width="40" height="29" as="geometry" />
        </mxCell>
        <mxCell id="A-txcWsjSwX4J8gZqHXm-44" value="" style="ellipse;whiteSpace=wrap;html=1;strokeColor=#1C1C1C;fillColor=none;fontFamily=Tahoma;fontSize=14;fontColor=#525252;align=center;strokeWidth=2;" parent="A-txcWsjSwX4J8gZqHXm-43" vertex="1">
          <mxGeometry x="19" y="19" width="10" height="10" as="geometry" />
        </mxCell>
        <mxCell id="A-txcWsjSwX4J8gZqHXm-45" value="" style="endArrow=none;html=1;entryX=0;entryY=0.5;entryDx=0;entryDy=0;" parent="1" target="A-txcWsjSwX4J8gZqHXm-44" edge="1">
          <mxGeometry width="50" height="50" relative="1" as="geometry">
            <mxPoint x="250.5300000000001" y="667" as="sourcePoint" />
            <mxPoint x="411.53" y="733" as="targetPoint" />
          </mxGeometry>
        </mxCell>
        <mxCell id="A-txcWsjSwX4J8gZqHXm-46" value="" style="endArrow=none;html=1;exitX=1;exitY=0.5;exitDx=0;exitDy=0;entryX=-0.004;entryY=0.125;entryDx=0;entryDy=0;entryPerimeter=0;" parent="1" source="A-txcWsjSwX4J8gZqHXm-44" edge="1">
          <mxGeometry width="50" height="50" relative="1" as="geometry">
            <mxPoint x="361.53" y="783" as="sourcePoint" />
            <mxPoint x="498.00199999999995" y="666.75" as="targetPoint" />
          </mxGeometry>
        </mxCell>
        <mxCell id="A-txcWsjSwX4J8gZqHXm-47" style="edgeStyle=none;rounded=0;html=1;startArrow=none;startFill=0;endArrow=classic;endFill=1;jettySize=auto;orthogonalLoop=1;strokeColor=#000000;fontFamily=Helvetica;fontSize=10;fontColor=#000000;targetPerimeterSpacing=0;endSize=8;sourcePerimeterSpacing=0;startSize=0;" parent="1" edge="1">
          <mxGeometry relative="1" as="geometry">
            <mxPoint x="410" y="653.7099999999999" as="targetPoint" />
            <mxPoint x="402" y="653.7099999999999" as="sourcePoint" />
          </mxGeometry>
        </mxCell>
        <mxCell id="A-txcWsjSwX4J8gZqHXm-48" value="" style="endArrow=none;html=1;exitX=1;exitY=0.5;exitDx=0;exitDy=0;entryX=0;entryY=0.5;entryDx=0;entryDy=0;" parent="1" source="A-txcWsjSwX4J8gZqHXm-49" edge="1">
          <mxGeometry width="50" height="50" relative="1" as="geometry">
            <mxPoint x="441" y="808" as="sourcePoint" />
            <mxPoint x="498" y="692.5" as="targetPoint" />
          </mxGeometry>
        </mxCell>
        <mxCell id="A-txcWsjSwX4J8gZqHXm-49" value="" style="ellipse;whiteSpace=wrap;html=1;strokeColor=#1C1C1C;fillColor=none;fontFamily=Tahoma;fontSize=14;fontColor=#525252;align=center;strokeWidth=2;" parent="1" vertex="1">
          <mxGeometry x="340" y="687" width="10" height="10" as="geometry" />
        </mxCell>
        <mxCell id="A-txcWsjSwX4J8gZqHXm-50" style="edgeStyle=none;rounded=0;html=1;startArrow=none;startFill=0;endArrow=classic;endFill=1;jettySize=auto;orthogonalLoop=1;strokeColor=#000000;fontFamily=Helvetica;fontSize=10;fontColor=#000000;targetPerimeterSpacing=0;endSize=8;startSize=0;" parent="1" edge="1">
          <mxGeometry relative="1" as="geometry">
            <mxPoint x="298" y="679.85" as="targetPoint" />
            <mxPoint x="306" y="680.14" as="sourcePoint" />
          </mxGeometry>
        </mxCell>
        <mxCell id="A-txcWsjSwX4J8gZqHXm-51" value="" style="endArrow=none;html=1;entryX=0;entryY=0.5;entryDx=0;entryDy=0;exitX=1;exitY=0.5;exitDx=0;exitDy=0;" parent="1" target="A-txcWsjSwX4J8gZqHXm-49" edge="1">
          <mxGeometry width="50" height="50" relative="1" as="geometry">
            <mxPoint x="250" y="691.9999999999999" as="sourcePoint" />
            <mxPoint x="491" y="758" as="targetPoint" />
          </mxGeometry>
        </mxCell>
        <mxCell id="A-txcWsjSwX4J8gZqHXm-52" value="claims as a signed JWT," style="text;html=1;strokeColor=none;fillColor=none;align=center;verticalAlign=middle;whiteSpace=wrap;overflow=hidden;fontFamily=Helvetica;fontSize=10;fontColor=#000000;fontStyle=1" parent="1" vertex="1">
          <mxGeometry x="307" y="668.66" width="133" height="20" as="geometry" />
        </mxCell>
        <mxCell id="A-txcWsjSwX4J8gZqHXm-53" value="access_token" style="text;html=1;strokeColor=none;fillColor=none;align=center;verticalAlign=middle;whiteSpace=wrap;overflow=hidden;fontFamily=Helvetica;fontSize=10;fontColor=#000000;fontStyle=1" parent="1" vertex="1">
          <mxGeometry x="310" y="639" width="100" height="29.66" as="geometry" />
        </mxCell>
        <mxCell id="A-txcWsjSwX4J8gZqHXm-54" value="" style="endArrow=none;html=1;fontSize=12;exitX=1;exitY=0.5;exitDx=0;exitDy=0;entryX=0;entryY=0.5;entryDx=0;entryDy=0;" parent="1" source="A-txcWsjSwX4J8gZqHXm-13" target="A-txcWsjSwX4J8gZqHXm-14" edge="1">
          <mxGeometry width="50" height="50" relative="1" as="geometry">
            <mxPoint x="430" y="550" as="sourcePoint" />
            <mxPoint x="350" y="511" as="targetPoint" />
          </mxGeometry>
        </mxCell>
      </root>
    </mxGraphModel>
  </diagram>
</mxfile>
